<mxfile host="app.diagrams.net" modified="2023-05-01T03:23:27.705Z" agent="Mozilla/5.0 (Windows NT 10.0; Win64; x64) AppleWebKit/537.36 (KHTML, like Gecko) Chrome/112.0.0.0 Safari/537.36 Edg/112.0.1722.64" etag="VJ-nOjODnLXowizOdVHu" version="21.2.3" type="github">
  <diagram name="第 1 页" id="z8W3NPQk-UQFI2Jvipfh">
    <mxGraphModel dx="1233" dy="581" grid="1" gridSize="10" guides="1" tooltips="1" connect="1" arrows="1" fold="1" page="1" pageScale="1" pageWidth="827" pageHeight="1169" math="0" shadow="0">
      <root>
        <mxCell id="0" />
        <mxCell id="1" parent="0" />
        <mxCell id="8CfekzLBDLLWZQPa8rFw-1" value="神经网络模型" style="text;html=1;align=center;verticalAlign=middle;resizable=0;points=[];autosize=1;strokeColor=none;fillColor=none;" parent="1" vertex="1">
          <mxGeometry x="30" y="130" width="100" height="30" as="geometry" />
        </mxCell>
        <mxCell id="8CfekzLBDLLWZQPa8rFw-2" value="输出计算公式" style="text;html=1;align=center;verticalAlign=middle;resizable=0;points=[];autosize=1;strokeColor=none;fillColor=none;" parent="1" vertex="1">
          <mxGeometry x="120" y="68" width="100" height="30" as="geometry" />
        </mxCell>
        <mxCell id="8CfekzLBDLLWZQPa8rFw-3" value="感知器" style="text;html=1;align=center;verticalAlign=middle;resizable=0;points=[];autosize=1;strokeColor=none;fillColor=none;" parent="1" vertex="1">
          <mxGeometry x="140" y="100" width="60" height="30" as="geometry" />
        </mxCell>
        <mxCell id="8CfekzLBDLLWZQPa8rFw-4" value="激活函数" style="text;html=1;align=center;verticalAlign=middle;resizable=0;points=[];autosize=1;strokeColor=none;fillColor=none;" parent="1" vertex="1">
          <mxGeometry x="135" y="138" width="70" height="30" as="geometry" />
        </mxCell>
        <mxCell id="8CfekzLBDLLWZQPa8rFw-5" value="信息熵 yes" style="text;html=1;align=center;verticalAlign=middle;resizable=0;points=[];autosize=1;strokeColor=none;fillColor=none;" parent="1" vertex="1">
          <mxGeometry x="290" y="80" width="80" height="30" as="geometry" />
        </mxCell>
        <mxCell id="8CfekzLBDLLWZQPa8rFw-6" value="条件熵" style="text;html=1;align=center;verticalAlign=middle;resizable=0;points=[];autosize=1;strokeColor=none;fillColor=none;" parent="1" vertex="1">
          <mxGeometry x="384" y="80" width="60" height="30" as="geometry" />
        </mxCell>
        <mxCell id="8CfekzLBDLLWZQPa8rFw-7" value="ASR=信息熵-条件熵" style="text;html=1;align=center;verticalAlign=middle;resizable=0;points=[];autosize=1;strokeColor=none;fillColor=none;" parent="1" vertex="1">
          <mxGeometry x="450" y="80" width="130" height="30" as="geometry" />
        </mxCell>
        <mxCell id="8CfekzLBDLLWZQPa8rFw-8" value="常用的深度学习框架" style="text;html=1;align=center;verticalAlign=middle;resizable=0;points=[];autosize=1;strokeColor=none;fillColor=none;" parent="1" vertex="1">
          <mxGeometry x="15" y="198" width="130" height="30" as="geometry" />
        </mxCell>
        <mxCell id="1UIfwk3YHBluAgXfvjJE-1" value="Text" style="text;html=1;align=center;verticalAlign=middle;resizable=0;points=[];autosize=1;strokeColor=none;fillColor=none;" vertex="1" parent="1">
          <mxGeometry x="265" y="458" width="50" height="30" as="geometry" />
        </mxCell>
      </root>
    </mxGraphModel>
  </diagram>
</mxfile>
